<svg id="Layer_1" data-name="Layer 1" xmlns="http://www.w3.org/2000/svg" viewBox="0 0 880.5 219.05"><defs><style>.cls-1{fill:#b92025;}.cls-2{fill:#fcb017;stroke:#bea832;}.cls-2,.cls-3{stroke-miterlimit:10;}.cls-3{fill:#e5b522;stroke:#eeb31e;}.cls-4{fill:#010101;}</style></defs><path class="cls-1" d="M-44,314c-.8,1.1-6.6,7.5-12.8,14.2s-14.8,15.7-18.9,20.2-8.3,8.9-9.5,10.1-5.6,6-10,10.9-9.6,10.5-11.5,12.6-7.1,7.5-11.5,12.3-11.7,12.6-16.2,17.4-8.3,8.9-8.3,9.2,2.6,3.2,5.8,6.5c6.8,7.2,23.4,25.3,35.1,38.5,8.2,9.2,12.4,13.7,20.6,22.4,2.2,2.3,7.4,8,11.5,12.6s8.9,9.8,10.5,11.5,6.1,6.6,9.9,10.8,7.5,7.7,8.2,7.7,2.2-1.2,3.4-2.8c2.3-2.9,13.9-15.8,20.8-23.2,2.3-2.5,5.5-5.9,7-7.5,2.6-2.8,18.7-20.4,25.7-28.3,1.7-1.8,5.2-5.6,7.8-8.4S35,448.2,43,439.2s15-16.3,15.5-16.3c2.1,0,.4-4-2.9-7.2-2.1-1.9-7.4-7.5-11.8-12.3s-9.8-10.6-12-12.9-7.6-8.2-12-13.1-9.4-10.3-11.1-12c-2.7-2.6-9.6-10-32.4-35-3-3.3-7.9-8.4-10.7-11.4s-5.3-5.8-5.3-6.3C-39.75,311.1-42.65,311.9-44,314Zm-32.7,73.9c0,3.9-.1,4-3.5,4h-3.5v11.6c0,10-.3,12-2,14.4l-2,2.8,2.2,2.8c1.9,2.4,2.3,4.4,2.8,14.3l.5,11.6,2.8.3c2.4.3,2.7.8,2.7,3.8,0,3.2-.2,3.4-3.5,3.4-4.9,0-8.2-1.8-9.5-5.3-.5-1.6-1-7.6-1-13.3,0-9.6-.2-10.4-2.6-13.3-2.9-3.5-2.7-7,.6-9.9,1.8-1.4,2-2.9,2-12,0-15,2.2-19.1,10.3-19.2C-76.75,383.9-76.75,383.9-76.75,387.9Zm64-3.3a10.11,10.11,0,0,1-1.8,3.4c-8.3,12.6-20,29.7-24.2,35.4-2.7,3.8-5.7,8.3-6.6,10a63.85,63.85,0,0,1-4.3,6.2c-1.4,1.7-4.6,6.3-7.1,10.2l-4.5,7.1h-9.5l2.6-4.3a66.2,66.2,0,0,1,4.4-6.2,24.7,24.7,0,0,0,3.1-4.6c1.3-2.4,3-4.9,10.4-15.1,1.7-2.3,3.9-5.6,5-7.4s5.1-7.7,8.9-13.1,7.4-11,8.2-12.6,1.8-2.7,2.3-2.7,1.6-1.6,2.7-3.5c1.7-3.2,2.3-3.5,6.1-3.5C-14.65,383.9-12.75,384.2-12.75,384.6Zm17.1,2.2c2.9,2.9,2.9,3.1,2.9,14.3,0,10.9.1,11.6,2.5,13.8a7.37,7.37,0,0,1,2.5,5.3,11.12,11.12,0,0,1-2.5,5.9c-2.3,2.8-2.5,3.7-2.5,13.8,0,6-.3,11.6-.6,12.5-.9,2.3-5.7,4.5-9.9,4.5-3.3,0-3.5-.2-3.5-3.4s.3-3.5,3.3-3.8l3.2-.3.5-12.1c.4-10.1.8-12.6,2.4-14.3,1.8-2,1.8-2.1-.3-5.6-1.8-3.1-2.1-5.2-2.1-14.5V392l-3.2-.3c-3-.3-3.3-.6-3.6-4.1l-.3-3.7h4.1C.55,383.9,2.05,384.5,4.35,386.8Z" transform="translate(142.75 -311.85)"/><path class="cls-2" d="M101.25,325a28.07,28.07,0,0,0-13.7,13.3c-4.6,9-5.3,15.4-5.3,50.6,0,35.7.7,42.1,5.7,51.1,3.5,6.6,13.2,15.3,19.1,17.3,5.4,1.9,15.9,2.1,21.3.4,5-1.4,11.2-6.8,14.4-12.2,2.8-4.8,6.1-17.2,6.8-25.4.4-4.9.3-5.2-1.9-5.2-1.7,0-2.1-.4-1.7-2,.5-1.9,0-2-9.6-2h-10.1v2.8c0,12.8-9.9,22.2-17.1,16.3l-2.4-1.9-.3-32.9c-.2-20.8.1-34.1.7-36.4a11.76,11.76,0,0,1,9.8-8.6c5.1-.7,7.1,1.7,8.6,10.1.8,5.1,1.5,6.6,2.8,6.6a2.64,2.64,0,0,1,2.2,2c.5,1.8,1.4,2,10,2H150l-.4-5.3c-.7-8-4-20.5-6.7-25.1-3.9-6.6-12.3-14.3-17.4-16C118.75,322.2,106.85,322.4,101.25,325Z" transform="translate(142.75 -311.85)"/><path class="cls-2" d="M180.25,323.8c-8.6,2.6-16.6,10.8-20.1,20.4-2.1,5.9-2.3,7.9-2.7,39.4-.4,36.8.2,44.3,4.7,53.8,3.3,7,11.5,15.5,18.1,18.8,3.7,1.8,6.2,2.2,14.5,2.2,9.2,0,10.4-.2,15.4-3,6.2-3.4,11.1-9.3,14.3-17.3,2.2-5.5,2.3-7.1,2.6-41.8.4-38.4-.2-44.5-4.7-53.2-3.5-6.6-10.8-13.9-17.3-17.1-5.4-2.7-7.1-3.1-14.2-3A56.93,56.93,0,0,0,180.25,323.8Zm21.4,29.4c2,2.8,2.1,3.9,2.1,35,0,28.1-.2,32.7-1.7,35.9-2,4.4-7,7.8-11.5,7.8-9.1,0-9.3-.8-9.3-38.4,0-35.2.4-38,6.4-41.7C192.35,348.9,199,349.6,201.65,353.2Z" transform="translate(142.75 -311.85)"/><path class="cls-2" d="M239.25,388.9v65h2.5c1.9,0,2.5.5,2.5,2.1,0,2.1.3,2.1,20.3,1.7,18-.3,20.7-.6,24.7-2.4,6.2-2.9,12.6-9.7,15.3-16.4,2.1-5.3,2.2-6.8,2.5-43.5.4-43.9.1-46.4-7.4-56.5-9.5-12.9-15.3-15-41.6-15h-18.8Zm42.2-36.2,2.3,2.3v33.7c0,30.6-.2,34-1.8,36.5-2.8,4.3-6,5.8-12.9,6l-6.3.2-.3-40.9-.2-40.8,8.5.3C278,350.3,279.55,350.7,281.45,352.7Z" transform="translate(142.75 -311.85)"/><path class="cls-2" d="M320.25,388.9c0,64.3,0,65,2,65a1.8,1.8,0,0,1,2,2c0,2,.7,2,29.5,2h29.5v-11c0-10.2-.1-11-1.9-11-1.3,0-2.1-.8-2.3-2.3-.3-2.2-.5-2.2-18-2.5l-17.8-.2v-27h34V393.4c0-9.8-.1-10.5-2-10.5-1.5,0-2-.7-2-2.5v-2.5h-30v-28h40v-11c0-10.3-.1-11-2-11a1.8,1.8,0,0,1-2-2c0-2-.7-2-29.5-2h-29.5Z" transform="translate(142.75 -311.85)"/><path class="cls-3" d="M459.05,337.1l-.3,9.3-11.2.3-11.3.3V453.9h-7.5c-6.8,0-7.5.2-7.5,2s.7,2,9,2h9v-108h23v-11c0-9-.3-11-1.5-11S459.25,329.8,459.05,337.1Z" transform="translate(142.75 -311.85)"/><path class="cls-3" d="M588.65,329.6c.3,1,7.5,29.4,16,63l15.4,61.3h-7.9c-7.2,0-7.9.2-7.9,2s.7,2,9.5,2c5.2,0,9.5-.3,9.5-.8s-7.2-29.6-16.1-65c-11.8-46.7-16.6-64.2-17.6-64.2S588.35,328.6,588.65,329.6Z" transform="translate(142.75 -311.85)"/><path class="cls-3" d="M649.25,390.9v63h-7.5c-6.8,0-7.5.2-7.5,2s.7,2,9.5,2h9.5v-65c0-64.3,0-65-2-65S649.25,328.6,649.25,390.9Z" transform="translate(142.75 -311.85)"/><path class="cls-3" d="M693.85,346.6c3.6,10.4,9.8,28.2,13.7,39.7,4.3,12.4,7.3,19.9,7.5,18.6.5-3.1-25-77-26.5-77C687.85,327.9,690,335.2,693.85,346.6Z" transform="translate(142.75 -311.85)"/><path class="cls-3" d="M734.25,390.9v63h-8.6c-7.4,0-8.5.2-8,1.6a15.63,15.63,0,0,1,.6,2c0,.2,4.3.4,9.5.4h9.5v-65c0-57.1-.2-65-1.5-65S734.25,335.6,734.25,390.9Z" transform="translate(142.75 -311.85)"/><path class="cls-3" d="M531.45,340.9c2,4.8,2.2,7.4,2.3,20.5,0,19.3-1.3,23.5-9.8,31.8l-5.9,5.9,9.9,27.1,10,27.2-9.5.3c-8,.2-9.3.5-8.8,1.8a15.63,15.63,0,0,1,.6,2c0,.2,4.7.4,10.5.4s10.5-.3,10.5-.8-4.5-12.9-10-27.7c-9-24.5-9.8-27.1-8.2-28,4.3-2.5,10.1-9.7,12.3-15.2,2-5.1,2.3-7.5,2.3-20.3,0-12.6-.3-15.2-2.2-20a41,41,0,0,0-4.2-8C529.45,335.6,529.45,335.8,531.45,340.9Z" transform="translate(142.75 -311.85)"/><path class="cls-3" d="M488.75,347.1c-.3.8-.4,7.9-.3,15.8.3,12.9.5,14.5,2.1,14.8s1.7-.9,1.7-13.7V349.9H502c9.3,0,9.6-.1,8-1.8C507.55,345.8,489.55,344.9,488.75,347.1Z" transform="translate(142.75 -311.85)"/><path class="cls-3" d="M398.25,348.4c0,1.2,1.7,1.5,9,1.5s9-.3,9-1.5-1.7-1.5-9-1.5S398.25,347.2,398.25,348.4Z" transform="translate(142.75 -311.85)"/><path class="cls-3" d="M580.35,369.1c-.1.4-2.1,9.7-4.6,20.7s-4.5,20.2-4.5,20.6,1,.5,2.2.3c2.4-.3,2.6-.9,7.5-23.8,1.6-7.2,1.7-9.3.7-13.5C581,370.6,580.35,368.7,580.35,369.1Z" transform="translate(142.75 -311.85)"/><path class="cls-3" d="M684.35,412.6l-.1,41.3h-6.5c-5.8,0-6.5.2-6.5,2s.7,2,8.5,2h8.6l-.3-39.8c-.3-34.6-.5-40.1-2-43.2C684.45,371.6,684.45,373.4,684.35,412.6Z" transform="translate(142.75 -311.85)"/><path class="cls-3" d="M488.25,427.3v26.6h-7c-6.3,0-7,.2-7,2s.7,2,9,2h9v-54h3.1c5,0,2.9-2.5-2.4-2.8l-4.7-.3Z" transform="translate(142.75 -311.85)"/><path class="cls-3" d="M566,434.6c-.2.5-1,3.3-1.7,6.3s-1.6,7.2-2.1,9.2l-1,3.7-7.2.3c-5.9.2-7.2.6-7.5,2-.3,1.6.6,1.8,9.1,1.8h9.5l2.4-10.3,2.3-10.2,13.2-.3c11.2-.2,13.1-.5,12.7-1.7s-3.3-1.5-14.9-1.5C572.85,433.9,566.15,434.2,566,434.6Z" transform="translate(142.75 -311.85)"/><path class="cls-4" d="M91.25,493.9c0,26.3,0,27,2,27a1.8,1.8,0,0,1,2,2c0,2,.7,2,320.5,2h320.5V498.5c0-25.5-.1-26.4-2-26.9a2.67,2.67,0,0,1-2-2.6v-2.1h-641Zm96.5-7.5c1.2,3.8,3.4,10.7,4.8,15.2,2.4,7.9,2.4,8.3.6,8.3-1.3,0-2.2-1.2-3.2-4.8l-1.4-4.7h-10.7l-1.5,4.7c-1,3.3-2,4.8-3.2,4.8-1.6,0-1.6-.3.1-5.8.9-3.1,3-9.8,4.5-14.7,3.3-10.9,3.2-10.7,5.8-10.3C185.15,479.3,186.05,480.9,187.75,486.4Zm33.5-6.2c6.2,3.1,6.6,12.2.7,15.7a14.85,14.85,0,0,1-6.4,2h-3.3v6c0,5.3-.2,6-2,6s-2-.7-2-14.9c0-11,.3-15.1,1.3-15.4C212,478.6,218.75,478.9,221.25,480.2Zm21.8-.2c5.4,1.9,6.7,9.8,2.2,13.6-1.7,1.5-1.8,1.9-.6,3.2.8.9,2.1,4.2,2.9,7.3,1.4,5.5,1.4,5.8-.3,5.8-1.3,0-2.2-1.1-2.9-3.8a29.78,29.78,0,0,1-1.1-4.6c0-2-3.5-4.6-6.2-4.6s-2.8,0-2.8,6.5c0,5.8-.2,6.5-2,6.5s-2-.7-2-14.9c0-11,.3-15.1,1.3-15.4C233.75,478.7,239.85,478.9,243.05,480Zm27.9.6c9.6,4.5,9.4,23.2-.3,27.8-11.2,5.3-21.3-5.9-17.4-19.4C255.65,480.5,263.25,476.9,271,480.6Zm27.9.2c6.9,3.1,9.3,12.3,5.5,20.8-2.5,5.5-6.7,7.6-15.1,7.7l-6.5.1-.3-14.4c-.2-10.9.1-14.6,1-15.3C285.75,478.3,294.65,478.9,298.85,480.8Zm15.4,9.6c0,11,.1,11.7,2.5,14,3.1,3.2,5.9,3.2,9,0,2.4-2.3,2.5-3,2.5-14s.1-11.5,2.1-11.5,2.1.3,1.7,11.9c-.4,13.2-1.5,15.9-6.8,18.1a10.62,10.62,0,0,1-12.3-3.3c-1.8-2.3-2.2-4.6-2.5-14.7-.4-11.7-.4-12,1.7-12S314.25,479.3,314.25,490.4ZM356,479.5c1.3.4,2,1.1,1.6,2s-1.5,1.2-4.3.8c-7.9-1.3-13.6,4.9-12.7,13.9.6,7.2,4,10.2,11.2,10.1,6.3,0,7.7,2.1,2.1,3.2-12.5,2.3-21-9.2-16-21.6C340.65,481,348.25,477.5,356,479.5Zm25.3.9c0,1.1-1.1,1.5-4,1.5h-4v14c0,13.3-.1,14-2,14s-2-.7-2-14v-14h-4.5c-3.3,0-4.5-.4-4.5-1.5s1.8-1.5,10.5-1.5S381.25,479.2,381.25,480.4Zm29.7.2c9.6,4.5,9.4,23.2-.3,27.8-11.2,5.3-21.3-5.9-17.4-19.4C395.65,480.5,403.25,476.9,411,480.6Zm27.3-.2c0,1.2-1.3,1.5-6,1.5h-6v11h5.5c4.2,0,5.5.3,5.5,1.5s-1.3,1.5-5.5,1.5h-5.5v7c0,6.3-.2,7-2,7s-2-.7-2-15.5V478.9h8C436.65,478.9,438.25,479.2,438.25,480.4Zm29.6.4c6.9,3.1,9.3,12.3,5.5,20.8-2.5,5.5-6.7,7.6-15.1,7.7l-6.5.1-.3-14.4c-.2-10.9.1-14.6,1-15.3C454.75,478.3,463.65,478.9,467.85,480.8Zm25.9,5.6c1.2,3.8,3.4,10.7,4.8,15.2,2.4,7.9,2.4,8.3.6,8.3-1.3,0-2.2-1.2-3.2-4.8l-1.4-4.7h-10.7l-1.5,4.7c-1,3.3-2,4.8-3.2,4.8-1.6,0-1.6-.3.1-5.8.9-3.1,3-9.8,4.5-14.7,3.3-10.9,3.2-10.7,5.8-10.3C491.15,479.3,492.05,480.9,493.75,486.4Zm25.5-6c0,1.1-1.1,1.5-4,1.5h-4v14c0,13.3-.1,14-2,14s-2-.7-2-14v-14h-4.5c-3.3,0-4.5-.4-4.5-1.5s1.8-1.5,10.5-1.5S519.25,479.2,519.25,480.4Zm7,12.5v14h6c4.7,0,6,.3,6,1.5s-1.6,1.5-8,1.5h-8V494.4c0-14.8.1-15.5,2-15.5S526.25,479.6,526.25,492.9Zm32-12.5c0,1.2-1.3,1.5-6,1.5h-6v10h5.5c4.2,0,5.5.3,5.5,1.5s-1.3,1.5-5.5,1.5h-5.5v12h6c4.7,0,6,.3,6,1.5s-1.6,1.5-8,1.5h-8v-31h8C556.65,478.9,558.25,479.2,558.25,480.4Zm10.1,12c2.1,7.1,4,12.3,4.3,11.5s2.1-6.8,4.1-13.3c2.9-9.5,3.9-11.7,5.4-11.7,1.7,0,1.4,1.5-3.2,15.5-6.9,20.7-7.4,20.6-13.8-.3-4.4-14.4-4.5-15.3-2.6-15C564.25,479.4,565.25,481.5,568.35,492.4Zm30.4-6c1.2,3.8,3.4,10.7,4.8,15.2,2.4,7.9,2.4,8.3.6,8.3-1.3,0-2.2-1.2-3.2-4.8l-1.4-4.7h-10.7l-1.5,4.7c-1,3.3-2,4.8-3.2,4.8-1.6,0-1.6-.3.1-5.8.9-3.1,3-9.8,4.5-14.7,3.3-10.9,3.2-10.7,5.8-10.3C596.15,479.3,597.05,480.9,598.75,486.4Zm19.8-.3c2.4,4,5.9,9.8,7.6,12.8l3.1,5.5V491.6c0-10.6.2-12.7,1.5-12.7s1.5,2.4,1.5,15.5c0,14.6-.1,15.5-1.9,15.5-1.4,0-3.7-3.1-8.5-11.3-3.6-6.1-7-11.9-7.5-12.7-.7-1-1,2.6-1,11.2-.1,10.7-.3,12.8-1.6,12.8s-1.5-2.4-1.5-15.5c0-14.6.1-15.5,1.9-15.5C613.45,478.9,615.55,481.3,618.55,486.1Z" transform="translate(142.75 -311.85)"/><path class="cls-4" d="M181.45,487.6c-.6,2.7-1.4,5.8-1.8,7-.6,2.1-.3,2.3,3.5,2.3,2.2,0,4.1-.2,4.1-.4,0-.8-4.1-13.6-4.4-13.6A25.6,25.6,0,0,0,181.45,487.6Z" transform="translate(142.75 -311.85)"/><path class="cls-4" d="M212.25,488.4c0,6.4,0,6.5,2.8,6.5,4.3,0,7.2-2.6,7.2-6.4,0-4.1-2.6-6.6-6.8-6.6h-3.2Z" transform="translate(142.75 -311.85)"/><path class="cls-4" d="M234.25,487.9v6h3.3c4,0,6.7-2.5,6.7-6.2,0-3.3-2.9-5.8-6.8-5.8h-3.2Z" transform="translate(142.75 -311.85)"/><path class="cls-4" d="M261.55,483.1a10,10,0,0,0-3.7,4.3c-4.8,10,1.9,22,10.3,18.5,7.7-3.2,8-19.4.5-22.9C265.65,481.7,264.45,481.7,261.55,483.1Z" transform="translate(142.75 -311.85)"/><path class="cls-4" d="M286.25,494.4v12.5h3.4c8.1,0,12.6-4.8,12.6-13.4,0-4.1-.5-5.3-3.4-8.2s-4.1-3.4-8-3.4h-4.6Z" transform="translate(142.75 -311.85)"/><path class="cls-4" d="M401.55,483.1a10,10,0,0,0-3.7,4.3c-4.8,10,1.9,22,10.3,18.5,7.7-3.2,8-19.4.5-22.9C405.65,481.7,404.45,481.7,401.55,483.1Z" transform="translate(142.75 -311.85)"/><path class="cls-4" d="M455.25,494.4v12.5h3.4c8.1,0,12.6-4.8,12.6-13.4,0-4.1-.5-5.3-3.4-8.2s-4.1-3.4-8-3.4h-4.6Z" transform="translate(142.75 -311.85)"/><path class="cls-4" d="M487.45,487.6c-.6,2.7-1.4,5.8-1.8,7-.6,2.1-.3,2.3,3.5,2.3,2.2,0,4.1-.2,4.1-.4,0-.8-4.1-13.6-4.4-13.6A25.6,25.6,0,0,0,487.45,487.6Z" transform="translate(142.75 -311.85)"/><path class="cls-4" d="M592.45,487.6c-.6,2.7-1.4,5.8-1.8,7-.6,2.1-.3,2.3,3.5,2.3,2.2,0,4.1-.2,4.1-.4,0-.8-4.1-13.6-4.4-13.6A25.6,25.6,0,0,0,592.45,487.6Z" transform="translate(142.75 -311.85)"/></svg>